<?xml version="1.0" encoding="UTF-8"?>
<svg id="Layer_2" data-name="Layer 2" xmlns="http://www.w3.org/2000/svg" viewBox="0 0 500.026 450.523">
  <g id="Layer_1-2" data-name="Layer 1">
    <g>
      <path d="M11.001,.5h-2c-1,2-2.5,3.5-4,5L0,10.501v2.5L6.5,6.5c2-1.5,3.5-3.5,4.5-6Z" fill="#010101"/>
      <path d="M25.001,.5h-2c-.5,4.5-2,8.5-5.5,11.501L0,29.502v2.5L19.001,13.001c3.5-3.5,5.5-7.5,6-12.501Z" fill="#010101"/>
      <path d="M455.523,58.003l44.502-44.502v-2.5l-46.002,46.002c-4,4-6,9-6,14.501v27.001l-10.501-10.501v-22.501c0-5,2-9.5,5.5-13.501L494.025,.5h-2.5l-50.003,50.003c-4,4-6,9-6,14.501v21.001l-10.501-11.001v-16.501c0-5,2-9.5,5.5-13.501L475.524,0h-2.5l-10.501,10.501V.5h-2V12.501l-10.501,11.001V.5h-2V25.001l-10.501,10.501V.5h-2V37.502l-6.5,6.5c-1.5,2-3,4-4,6.5V8.5c0-3-.5-5.5-1.5-8h-2c1,2.5,2,5.5,2,8V73.504l-5-5c-3.5-3.5-5.5-8.5-5.5-13.501V.5h-2V5c0,5-2,9.5-5.5,13.501l-51.003,50.503c-4,4-6,9-6,14.501v42.002c-1-2.5-2.5-4.5-4.5-6l-6.5-6.5v-35.002c0-5,2-9.5,5.5-13.501l51.003-51.503c3.5-3.5,5.5-7.5,6-12.501h-2c-.5,4.5-2.5,8.5-5.5,11.501l-50.503,51.003c-4,4-6,9-6,14.501v33.502l-11.001-11.001v-29.001c0-5,2-9.5,5.5-13.501L381.52,7c2-2,3.5-4,4.5-6.5h-2c-1,2-2,3.5-3.5,5l-51.503,51.003c-4,4-6,9-6,14.501v27.001l-10.501-10.501v-22.501c0-5,2-9.5,5.5-13.501L369.019,.5h-2.5l-50.003,50.003c-4,4-6,9-6,14.501v21.001l-10.501-11.001v-16.501c0-5,2-9.5,5.5-13.501L350.518,0h-2.5l-10.501,10.501V.5h-2V12.501l-10.501,11.001V.5h-2V25.001l-10.501,10.501V.5h-2V37.502l-6.5,6.5c-1.5,2-3,4-4,6.5V8.5c0-3-.5-5.5-1.5-8h-2c1,2.5,2,5.5,2,8V73.004l-5-5c-3.5-3.5-5.5-8.5-5.5-13.501V.5h-2V5c0,5-2,9.5-5.5,13.501l-51.003,50.503c-4,4-6,9-6,14.501v42.002c-1-2.5-2.5-4.5-4.5-6l-6.5-6.5v-35.002c0-5,2-9.5,5.5-13.501l51.003-51.503c3.5-3.5,5.5-7.5,6-12.501h-2c-.5,4.5-2.5,8.5-5.5,11.501l-50.503,51.003c-4,4-6,9-6,14.501v33.502l-11.001-11.001v-29.001c0-5,2-9.5,5.5-13.501L256.513,7c2-2,3.5-4,4.5-6.5h-2c-1,2-2,3.5-3.5,5l-51.003,51.003c-4,4-6,9-6,14.501v27.001l-10.501-10.501v-22.501c0-5,2-9.5,5.5-13.501L244.012,.5h-2.5l-50.003,50.003c-4,4-6,9-6,14.501v21.001l-10.501-11.001v-16.501c0-5,2-9.5,5.5-13.501L225.512,0h-2.5l-10.501,10.501V.5h-2V12.501l-10.501,11.001V.5h-2V25.001l-10.501,10.501V.5h-2V37.502l-6.5,6.5c-1.5,2-3,4-4,6.5V8.5c0-3-.5-5.5-1.5-8h-2c1,2.5,2,5.5,2,8V58.003h0v15.001l-5-5c-3.5-3.5-5.5-8.5-5.5-13.501V6.5h0V.5h-2V5c0,5-2,9.5-5.5,13.501l-51.003,50.503c-4,4-6,9-6,14.501v42.002c-1-2.5-2.5-4.5-4.5-6l-6.5-6.5v-35.002c0-5,2-9.5,5.5-13.501L144.007,13.001c3.5-3.5,5.5-7.5,6-12.501h-2c-.5,4.5-2.5,8.5-5.5,11.501l-50.503,51.003c-4,4-6,9-6,14.501v33.502l-11.001-11.001v-29.001c0-5,2-9.5,5.5-13.501L131.507,7c2-2,3.5-4,4.5-6.5h-2c-1,2-2,3.5-3.5,5l-51.003,51.003c-4,4-6,9-6,14.501v27.001l-10.501-10.501v-22.501c0-5,2-9.5,5.5-13.501L119.006,.5h-2.5l-50.003,50.003c-4,4-6,9-6,14.501v21.001l-10.501-11.001v-16.501c0-5,2-9.5,5.5-13.501L100.505,0h-2.5l-10.501,10.501V.5h-2V12.501l-10.501,11.001V.5h-2V25.001l-10.501,10.501V.5h-2V37.502l-6.5,6.5c-1.5,2-3,4-4,6.5V8.5c0-2.5-.5-5.5-1.5-8h-2c1,2.5,2,5.5,2,8V73.004l-5-5c-3.5-3.5-5.5-8.5-5.5-13.501V6.5h0V.5h-2.5V5c0,5-2,9.5-5.5,13.501L0,48.502v33.502c1,2.5,2.5,4.5,4.5,6l50.503,51.003c3.5,3.5,5.5,8.5,5.5,13.501v35.002l-6.5,6.5c-2,2-3,4-4.5,6v-41.502c0-5.5-2-10.501-6-14.501L0,100.005v36.002H0v-33.502l10.501,10.501v29.001c0,5-2,9.5-5.5,13.501l-5,5v2.5l6.5-6.5c4-4,6-9,6-14.501v-27.001l10.501,10.501v22.501c0,5-2,9.5-5.5,13.501L0,179.509v2.5l19.001-19.001c4-3.5,6-9,6-14.501v-21.001l10.501,10.501v16.501c0,5-2,9.5-5.5,13.501L0,198.01v33.502c1,2.5,2.5,4.5,4.5,6l50.503,51.503c3.5,3.5,5.5,8.5,5.5,13.501v35.002l-6.5,6.5c-2,2-3,4-4.5,6v-41.502c0-5.5-2-10.501-6-14.501L0,250.013v36.002H0v-33.502l10.501,10.501v29.001c0,5-2,9.5-5.5,13.501l-5,5v2.5l6.5-6.5c4-4,6-9,6-14.501v-27.001l10.501,10.501v22.501c0,5-2,9.5-5.5,13.501L0,329.517v2.5l19.001-19.001c4-3.5,6-9,6-14.501v-21.001l10.501,10.501v16.501c0,5-2,9.5-5.5,13.501L0,348.018v33.502c1,2.5,2.5,4.5,4.5,6l50.503,51.503c3,3,5,7,5.5,11.501h2c-.5-5-2.5-9-6-12.501L5.5,387.02C2,383.52,0,378.519,0,373.519v-22.501l10.501-10.501v27.001c0,5.5,2,10.501,6,14.501l51.003,51.003c3.5,3.5,5.5,8.5,5.5,13.501v4h2v-4.5c0-5.5-2-10.501-6-14.501l-51.003-51.003c-3.5-3.5-5.5-8.5-5.5-13.501v-29.001l10.501-10.501v33.502c0,5.5,2,10.501,6,14.501l51.003,51.003c3.5,3.5,5.5,8.5,5.5,13.501v10.501h2v-10.501c0-5.5-2-10.501-6-14.501l-51.003-51.003c-3.5-3.5-5.5-8.5-5.5-13.501v-35.002l6.5-6.5c2-2,3-4,4.5-6v41.502c0,5.5,2,10.501,6,14.501l50.503,51.003c3.5,3.5,5.5,8.5,5.5,13.501v16.501h2.5l6-6c4-4,6-9,6-14.501v-41.502c1,2.5,2.5,4.5,4.5,6l6.5,6.5v35.002c0,5-2,9.5-5.5,13.501l-1.5,1h2.5c4-4,6-9,6-14.501v-33.502l10.501,10.501v29.001c0,3-.5,5.5-2,8h2c1-2.5,1.5-5.5,1.5-8v-27.001l10.501,10.501v24.501h2.5v-23.001l10.501,10.501v13.001h2v-10.501l5,5c1.5,1.5,2.5,3.5,3.5,5h2c-1-2.5-2.5-4.5-4.5-6.5l-50.503-50.503c-3.5-3.5-5.5-8.5-5.5-13.501v-16.501l10.501-10.501v21.001c0,5.5,2,10.501,6,14.501l51.003,51.003c3,3,5,7,5.5,11.501h2c-.5-5-2.5-9-6-12.501l-51.003-51.003c-3.5-3.5-5.5-8.5-5.5-13.501v-22.501l10.501-10.501v27.001c0,5.5,2,10.501,6,14.501l51.003,51.003c3.5,3.5,5.5,8.5,5.5,13.501v4h2v-4.5c0-5.5-2-10.501-6-14.501l-51.003-51.003c-3.5-3.5-5.5-8.5-5.5-13.501v-29.001l10.501-10.501v33.502c0,5.5,2,10.501,6,14.501l51.003,51.003c3.5,3.5,5.5,8.5,5.5,13.501v10.501h2v-10.501c0-5.5-2-10.501-6-14.501l-51.003-51.003c-3.5-3.5-5.5-8.5-5.5-13.501v-35.002l6.5-6.5c2-2,3-4,4.5-6v41.502c0,5.5,2,10.501,6,14.501l50.503,51.003c3.5,3.5,5.5,8.5,5.5,13.501v16.501h2.5l6-6c4-4,6-9,6-14.501v-41.502c1,2.5,2.5,4.5,4.5,6l6.5,6.5v35.002c0,5-2,9.5-5.5,13.501l-1.5,1h2.5c4-4,6-9,6-14.501v-33.502l10.501,10.501v29.001c0,3-.5,5.5-2,8h2c1-2.5,1.5-5.5,1.5-8v-27.001l10.501,10.501v24.501h2.5v-23.001l10.501,10.501v13.001h2v-10.501l5,5c1.5,1.5,2.5,3.5,3.5,5h2c-1-2.5-2.5-4.5-4.5-6.5l-50.503-50.503c-3.5-3.5-5.5-8.5-5.5-13.501v-16.001l10.501-10.501v21.001c0,5.5,2,10.501,6,14.501l51.003,50.503c3,3,5,7,5.5,11.501h2c-.5-5-2.5-9-6-12.501l-51.003-51.003c-3.5-3.5-5.5-8.5-5.5-13.501v-22.501l10.501-10.501v27.001c0,5.5,2,10.501,6,14.501l51.003,51.003c3.5,3.5,5.5,8.5,5.5,13.501v4h2v-4.5c0-5.5-2-10.501-6-14.501l-51.003-51.003c-3.5-3.5-5.5-8.5-5.5-13.501v-29.001l10.501-10.501v33.502c0,5.5,2,10.501,6,14.501l51.003,51.003c3.5,3.5,5.5,8.5,5.5,13.501v10.501h2v-10.501c0-5.5-2-10.501-6-14.501l-51.003-51.003c-3.5-3.5-5.5-8.5-5.5-13.501v-35.002l6.5-6.5c2-2,3-4,4.5-6v41.502c0,5.5,2,10.501,6,14.501l50.503,51.003c3.5,3.5,5.5,8.5,5.5,13.501v16.501h0s2.5,0,2.5,0l6-6c4-4,6-9,6-14.501v-41.502c1,2.5,2.5,4.5,4.5,6l6.5,6.5v35.002c0,5-2,9.5-5.5,13.501l-1.5,1h2.5c4-4,6-9,6-14.501v-33.502l10.501,10.501v29.001c0,3-.5,5.5-2,8h2c1-2.5,1.5-5.5,1.5-8v-27.001l10.501,10.501v24.501h2.5v-23.001l10.501,10.501v13.001h2v-10.501l5,5c1.5,1.5,2.5,3.5,3.5,5h2c-1-2.5-2.5-4.5-4.5-6.5l-50.503-50.503c-3.5-3.5-5.5-8.5-5.5-13.501v-16.501l10.501-10.501v21.001c0,5.5,2,10.501,6,14.501l51.003,51.003c3,3,5,7,5.5,11.501h2c-.5-5-2.5-9-6-12.501l-51.003-51.003c-3.5-3.5-5.5-8.5-5.5-13.501v-22.501l10.501-10.501v27.001c0,5.5,2,10.501,6,14.501l51.003,51.003c3.5,3.5,5.5,8.5,5.5,13.501v4h2v-4.5c0-5.5-2-10.501-6-14.501l-51.003-51.003c-3.5-3.5-5.5-8.5-5.5-13.501v-29.001l10.501-10.501v33.502c0,5.5,2,10.501,6,14.501l51.003,51.003c3.5,3.5,5.5,8.5,5.5,13.501v10.501h2v-10.501c0-5.5-2-10.501-6-14.501l-51.003-51.003c-3.5-3.5-5.5-8.5-5.5-13.501v-35.002l6.5-6.5c2-2,3-4,4.5-6v41.502c0,5.5,2,10.501,6,14.501l50.503,51.003c3.5,3.5,5.5,8.5,5.5,13.501v16.501h2.5l6-6c4-4,6-9,6-14.501v-41.502c1,2.5,2.5,4.5,4.5,6l6.5,6.5v35.002c0,5-2,9.5-5.5,13.501l-1.5,1h2.5c4-4,6-9,6-14.501v-33.502h0v-2.5l-7-7c-3.5-3.5-5.5-8.5-5.5-13.501v-16.501l10.501-10.501v21.001c0,3,.5,5.5,2,8.5v-8.5h0v-22.501h0v-2.5l-21.001,21.001c-4,4-6,9-6,14.501v41.502c-1-2.5-2.5-4.5-4.5-6l-6.5-6.5v-35.002c0-5,2-9.5,5.5-13.501l32.002-32.002v-2.5l-33.502,33.502c-4,4-6,9-6,14.501v33.502l-10.001-11.501v-29.001c0-5,2-9.5,5.5-13.501l44.502-44.502v-2.5l-46.002,46.002c-4,4-6,9-6,14.501v27.001l-10.501-10.501v-22.501c0-5,2-9.5,5.5-13.501l51.003-51.003c4-4,6-9,6-14.501v-33.502h0v-2.5l-7-7c-3.5-3.5-5.5-8.5-5.5-13.501v-16.501l10.501-10.501v21.001c0,3,.5,5.5,2,8.5v-8.5h0v-22.501h0v-2.5l-21.001,21.001c-4,4-6,9-6,14.501v41.502c-1-2.5-2.5-4.5-4.5-6l-6.5-6.5v-35.002c0-5,2-9.5,5.5-13.501l32.002-32.002v-2.5l-33.502,33.502c-4,4-6,9-6,14.501v33.502l-10.001-11.501v-29.001c0-5,2-9.5,5.5-13.501l44.502-44.502v-2.5l-46.002,46.002c-4,4-6,9-6,14.501v27.001l-10.501-10.501v-22.501c0-5,2-9.5,5.5-13.501l51.003-51.003c4-4,6-9,6-14.501v-33.502h0v-2.5l-7-7c-3.5-3.5-5.5-8.5-5.5-13.501v-16.501l10.501-10.501v21.001c0,3,.5,5.5,2,8.5v-8.5h0v-22.501h0v-2.5l-21.001,21.001c-4,4-6,9-6,14.501v41.502c-1-2.5-2.5-4.5-4.5-6l-6.5-6.5v-35.002c0-5,2-9.5,5.5-13.501l32.002-32.002v-3l-33.502,33.502c-4,4-6,9-6,14.501v33.502l-10.001-11.001v-29.001c0-5,2-9.5,5.5-13.001Zm19.501,375.519v-50.003c0-5,2-9.5,5.5-13.501l5-5v65.003c0,5-2,9.5-5.5,13.501l-5,5v-15.001ZM387.52,38.502l10.501-10.501V61.503c0,5.5,2,10.501,6,14.501l51.003,50.503c3.5,3.5,5.5,8.5,5.5,13.501v22.501l-10.501,11.001v-27.001c0-5.5-2-10.501-6-14.501l-51.003-51.503c-3.5-3.5-5.5-8.5-5.5-13.501v-28.501Zm-12.501,12.501l10.501-10.501v27.001c0,5.5,2,10.501,6,14.501l51.003,51.003c3.5,3.5,5.5,8.5,5.5,13.501v29.001l-10.501,10.501v-33.502c0-5.5-2-10.501-6-14.501l-51.003-51.003c-3.5-3.5-5.5-8.5-5.5-13.501v-22.501Zm-12.501,12.501l10.501-10.501v21.001c0,5.5,2,10.501,6,14.501l51.003,50.503c3.5,3.5,5.5,8.5,5.5,13.501v35.002l-6.5,6.5c-2,2-3,4-4.5,6v-41.502c0-5.5-2-10.501-6-14.501l-50.503-51.003c-3.5-3.5-5.5-8.5-5.5-13.501v-16.001Zm60.503,95.005v65.003l-5-5c-3.5-3.5-5.5-8.5-5.5-13.501v-64.503l5,5c4,3.5,5.5,8,5.5,13.001Zm-19.001,67.003l51.003,51.003c3.5,3.5,5.5,8.5,5.5,13.501v22.501l-10.501,11.001v-27.001c0-5.5-2-10.501-6-14.501l-51.003-51.503c-3.5-3.5-5.5-8.5-5.5-13.501v-29.001l10.501-10.501v33.502c0,5.5,2.5,11.001,6,14.501Zm27.501,62.503l-51.003-51.003c-3.5-3.5-5.5-8.5-5.5-13.501v-22.501l10.501-10.501v27.001c0,5.5,2,10.501,6,14.501l51.003,51.003c3.5,3.5,5.5,8.5,5.5,13.501v29.001l-10.501,10.501v-33.502c0-5.5-2-11.001-6-14.501Zm-12.501,6l-51.003-51.003c-3.5-3.5-5.5-8.5-5.5-13.501v-16.501l10.501-10.501v21.001c0,5.5,2,10.501,6,14.501l51.003,51.003c3.5,3.5,5.5,8.5,5.5,13.501v35.002l-6.5,6.5c-2,2-3,4-4.5,6v-41.502c.5-5.5-1.5-10.501-5.5-14.501Zm-64.503-75.004c-4,4-6,9-6,14.501v42.002c-1-2.5-2.5-4.5-4.5-6l-6.5-6.5v-35.002c0-5,2-9.5,5.5-13.501l51.003-51.003c4-4,6-9,6-14.501v-21.001l10.501,10.501v16.501c0,5-2,9.5-5.5,13.501l-50.503,50.503Zm6-4v64.503c0,5-2,9.5-5.5,13.501l-5,5v-64.503c0-5,2-9.5,5.5-13.501l5-5Zm-29.001,60.503l-51.003-51.003c-3.5-3.5-5.5-8.5-5.5-13.501v-35.002l6.5-6.5c2-2,3-4,4.5-6v41.502c0,5.5,2,10.501,6,14.501l50.503,51.003c3.5,3.5,5.5,8.5,5.5,13.501v16.001l-10.501,10.501v-21.001c0-5-2-10.501-6-14.001Zm-12.501,6l-51.003-51.003c-3.5-3.5-5.5-8.5-5.5-13.501v-29.001l10.501-10.501v33.502c0,5.5,2,10.501,6,14.501l51.003,51.003c3.5,3.5,5.5,8.5,5.5,13.501v22.501l-10.501,11.001v-27.001c0-6-2-11.001-6-15.001Zm-12.501,6.5l-51.003-51.003c-3.5-3.5-5.5-8.5-5.5-13.501v-22.501l10.501-10.501v27.001c0,5.5,2,10.501,6,14.501l51.003,51.003c3.5,3.5,5.5,8.5,5.5,13.501v29.001l-10.501,10.501v-33.502c0-5.5-2-11.001-6-14.501Zm-12.501,6l-51.003-51.003c-3.5-3.5-5.5-8.5-5.5-13.501v-16.001l10.501-10.501v21.001c0,5.5,2,10.501,6,14.501l51.003,50.503c3.5,3.5,5.5,8.5,5.5,13.501v35.002l-6.5,6.5c-2,2-3,4-4.5,6v-41.502c.5-5.5-1.5-10.501-5.5-14.501Zm-69.004-12.501h0v-48.002c0-5,2-9.5,5.5-13.501l5-5v65.003c0,5-2,9.5-5.5,13.501l-5,5v-17.001Zm4.5-62.503c-4,4-6,9-6,14.501v42.002c-1-2.5-2.5-4.5-4.5-6l-6.5-6.5v-35.002c0-5,2-9.5,5.5-13.501l51.003-51.003c4-4,6-9,6-14.501v-21.001l10.501,10.501v16.501c0,5-2,9.5-5.5,13.501l-50.503,50.503Zm-23.001,56.503l-51.003-51.003c-3.5-3.5-5.5-8.5-5.5-13.501v-35.002l6.5-6.5c2-2,3-4,4.5-6v41.502c0,5.5,2,10.501,6,14.501l50.503,51.003c3.5,3.5,5.5,8.5,5.5,13.501v16.501l-10.501,10.501v-21.001c0-5.5-2-11.001-6-14.501Zm-12.501,6l-51.003-51.003c-3.5-3.5-5.5-8.5-5.5-13.501v-29.001l10.501-10.501v33.502c0,5.5,2,10.501,6,14.501l51.003,51.003c3.5,3.5,5.5,8.5,5.5,13.501v22.501l-10.501,11.001v-27.001c0-6-2-11.001-6-15.001Zm-12.501,6.5l-51.003-51.003c-3.5-3.5-5.5-8.5-5.5-13.501v-22.501l10.501-10.501v27.001c0,5.5,2,10.501,6,14.501l51.003,51.003c3.5,3.5,5.5,8.5,5.5,13.501v29.001l-10.501,10.501v-33.502c0-5.5-2-11.001-6-14.501Zm-12.501,6l-51.003-51.003c-3.5-3.5-5.5-8.5-5.5-13.501v-16.501l10.501-10.501v21.001c0,5.5,2,10.501,6,14.501l51.003,51.003c3.5,3.5,5.5,8.5,5.5,13.501v35.002l-6.5,6.5c-2,2-3,4-4.5,6v-41.502c.5-5.5-1.5-10.501-5.5-14.501Zm-64.503-75.004c-4,4-6,9-6,14.501v42.002c-1-2.5-2.5-4.5-4.5-6l-6.5-6.5v-35.002c0-5,2-9.5,5.5-13.501l51.003-51.003c4-4,6-9,6-14.501v-21.001l10.501,10.501v16.501c0,5-2,9.5-5.5,13.501l-50.503,50.503Zm6-4v64.503c0,5-2,9.5-5.5,13.501l-5,5v-64.503c0-5,2-9.5,5.5-13.501l5-5Zm-35.502,6c0-5,2-9.5,5.5-13.501l51.003-51.003c4-4,6-9,6-14.501v-27.001l10.501,10.501v22.501c0,5-2,9.5-5.5,13.501l-50.503,51.503c-4,4-6,9-6,14.501v33.502l-11.001-11.001v-29.001Zm-2,0v27.001l-10.501-10.501v-22.501c0-5,2-9.5,5.5-13.501l51.003-51.003c4-4,6-9,6-14.501v-33.502l10.501,10.501v29.001c0,5-2,9.5-5.5,13.501l-50.503,51.003c-4,4-6.5,9-6.5,14.501Zm100.505-14.501v16.501l-5-5c-3.5-3.5-5.5-8.5-5.5-13.501v-48.002h0v-16.501l5,5c3.5,3.5,5.5,8.5,5.5,13.501v48.002h0Zm87.004-64.003c0,5-2,9.5-5.5,13.501l-50.503,50.503c-4,4-6,9-6,14.501v27.001l-10.501-10.501v-22.501c0-5,2-9.5,5.5-13.501l50.503-51.003c4-4,6-9,6-14.501v-33.502l10.501,10.501v29.501Zm2,0v-27.001l10.501,10.501v22.501c0,5-2,9.5-5.5,13.501l-50.503,51.003c-4,4-6,9-6,14.501v33.502l-11.001-11.001v-29.001c0-5,2-9.5,5.5-13.501l51.003-51.003c4-3.5,6-8.5,6-14.001Zm36.002,64.003v16.501l-5-5c-3.5-3.5-5.5-8.5-5.5-13.501v-64.503l5,5c3.5,3.5,5.5,8.5,5.5,13.501v48.002h0Zm87.004-64.003c0,5-2,9.5-5.5,13.501l-51.003,50.503c-4,4-6,9-6,14.501v27.001l-10.501-10.501v-22.501c0-5,2-9.5,5.5-13.501l51.003-51.003c4-4,6-9,6-14.501v-33.502l10.501,10.501v29.501Zm2,0v-27.001l10.501,10.501v22.501c0,5-2,9.5-5.5,13.501l-50.503,51.003c-4,4-6,9-6,14.501v33.502l-11.001-11.001v-29.001c0-5,2-9.5,5.5-13.501l51.003-51.003c4-3.5,6-8.5,6-14.001Zm-37.502-9v-50.003c0-5,2-9.5,5.5-13.501l5-5v16.501h0v48.002c0,5-2,9.5-5.5,13.501l-5,5v-14.501Zm6.5,11.001c4-4,6-9,6-14.501v-41.502c1,2.5,2.5,4.5,4.5,6l6.5,6.5v35.002c0,5-2,9.5-5.5,13.501l-51.503,51.003c-4,4-6,9-6,14.501v21.001l-10.501-11.001v-16.501c0-5,2-9.5,5.5-13.501l51.003-50.503ZM275.014,26.001l6.5-6.5c2-2,3-4,4.5-6V55.003c0,5.5,2,10.501,6,14.501l50.503,51.003c3.5,3.5,5.5,8.5,5.5,13.501v16.501l-10.501,10.501v-21.001c0-5.5-2-10.501-6-14.501l-51.003-51.003c-3.5-3.5-5.5-8.5-5.5-13.501V26.001Zm-12.501,12.501l10.501-10.501V61.503c0,5.5,2,10.501,6,14.501l51.003,50.503c3.5,3.5,5.5,8.5,5.5,13.501v22.501l-10.501,11.001v-27.001c0-5.5-2-10.501-6-14.501l-51.003-51.503c-3.5-3.5-5.5-8.5-5.5-13.501v-28.501Zm-12.501,12.501l10.501-10.501v27.001c0,5.5,2,10.501,6,14.501l51.003,51.003c3.5,3.5,5.5,8.5,5.5,13.501v29.001l-10.501,10.501v-33.502c0-5.5-2-10.501-6-14.501l-51.003-51.003c-3.5-3.5-5.5-8.5-5.5-13.501v-22.501Zm-12.501,24.501v-12.001l10.501-10.501v21.001c0,5.5,2,10.501,6,14.501l51.003,50.503c3.5,3.5,5.5,8.5,5.5,13.501v35.002l-6.5,6.5c-2,2-3,4-4.5,6v-41.502c0-5.5-2-10.501-6-14.501l-50.503-51.003c-3.5-3.5-5.5-8.5-5.5-13.501v-4Zm-12.501,56.003v-48.002c0-5,2-9.5,5.5-13.501l5-5v65.003c0,5-2,9.5-5.5,13.501l-5,5v-17.001h0Zm6.5,13.001c4-4,6-9,6-14.501v-41.502c1,2.5,2.5,4.5,4.5,6l6.5,6.5v35.002c0,5-2,9.5-5.5,13.501l-51.003,51.003c-4,4-6,9-6,14.501v21.001l-11.001-11.001v-16.501c0-5,2-9.5,5.5-13.501l51.003-50.503ZM150.008,26.001l6.5-6.5c2-2,3-4,4.5-6V55.003c0,5.5,2,10.501,6,14.501l50.503,51.003c3.5,3.5,5.5,8.5,5.5,13.501v16.501l-10.501,10.501v-21.001c0-5.5-2-10.501-6-14.501l-51.003-51.003c-3.5-3.5-5.5-8.5-5.5-13.501V26.001Zm-12.501,12.501l10.501-10.501V61.503c0,5.5,2,10.501,6,14.501l51.003,50.503c3.5,3.5,5.5,8.5,5.5,13.501v22.501l-10.501,11.001v-27.001c0-5.5-2-10.501-6-14.501l-51.003-51.503c-3.5-3.5-5.5-8.5-5.5-13.501v-28.501Zm-12.501,12.501l10.501-10.501v27.001c0,5.5,2,10.501,6,14.501l51.003,51.003c3.5,3.5,5.5,8.5,5.5,13.501v29.001l-10.501,10.501v-33.502c0-5.5-2-10.501-6-14.501l-51.003-51.003c-3.5-3.5-5.5-8.5-5.5-13.501v-22.501Zm-12.501,26.501v-14.001l10.501-10.501v21.001c0,5.5,2,10.501,6,14.501l51.003,50.503c3.5,3.5,5.5,8.5,5.5,13.501v35.002l-6.5,6.5c-2,2-3,4-4.5,6v-41.502c0-5.5-2-10.501-6-14.501l-50.503-51.003c-3.5-3.5-5.5-8.5-5.5-13.501v-2Zm-12.501,56.003v-50.003c0-5,2-9.5,5.5-13.501l5-5v64.503c0,5-2,9.5-5.5,13.501l-5,5v-14.501ZM25.001,26.001l6.5-6.5c2-2,3-4,4-6.5V54.503c0,5.5,2,10.501,6,14.501l51.003,51.503c3.5,3.5,5.5,8.5,5.5,13.501v16.501l-10.501,10.501v-21.001c0-5.5-2-10.501-6-14.501L30.502,74.504c-3.5-3.5-5.5-8.5-5.5-13.501V26.001Zm-12.501,12.501l10.501-10.501V61.503c0,5.5,2,10.501,6,14.501l51.003,50.503c3.5,3.5,5.5,8.5,5.5,13.501v22.501l-10.501,11.001v-27.001c0-5.5-2-10.501-6-14.501L18.001,80.504c-3.5-3.5-5.5-8.5-5.5-13.501v-28.501Zm44.002,99.505L5.5,87.004C2,83.504,0,78.504,0,73.504v-22.501l10.501-10.501v27.001c0,5.5,2,10.501,6,14.501l51.003,51.003c3.5,3.5,5.5,8.5,5.5,13.501v29.001l-10.501,10.501v-33.502c0-5.5-2-11.001-6-14.501Zm-6.5,70.504c0-5,2-9.5,5.5-13.501l51.003-51.003c4-4,6-9,6-14.501v-41.502c1,2.5,2.5,4.5,4.5,6l6.5,6.5v35.002c0,5-2,9.5-5.5,13.501l-51.003,51.503c-4,4-6,9-6,14.501v21.001l-11.001-11.001v-16.501Zm-12.501-53.503v-14.501l5,5c3.5,3.5,5.5,8.5,5.5,13.501v64.503l-5-5c-3.5-3.5-5.5-8.5-5.5-13.501v-48.002h0c0-1,0-1.5,0-2Zm-12.501,21.001l6.5-6.5c2-2,3-4,4.5-6v41.502c0,5.5,2,10.501,6,14.501l50.503,51.003c3.5,3.5,5.5,8.5,5.5,13.501v16.001l-10.501,10.501v-21.001c0-5.5-2-10.501-6-14.501l-51.003-50.503c-3.5-3.5-5.5-8.5-5.5-13.501v-35.002Zm-12.501,12.501l10.501-10.501v33.502c0,5.5,2,10.501,6,14.501l51.003,50.503c3.5,3.5,5.5,8.5,5.5,13.501v22.501l-10.501,11.001v-27.001c0-5.5-2-10.501-6-14.501l-51.003-51.503c-3.5-3.5-5.5-8.5-5.5-13.501v-28.501Zm44.002,99.505L5.5,237.012C2,233.512,0,228.512,0,223.511v-22.501l10.501-10.501v27.001c0,5.5,2,10.501,6,14.501l51.003,51.003c3.5,3.5,5.5,8.5,5.5,13.501v29.001l-10.501,10.501v-33.502c0-5.5-2-11.001-6-14.501Zm-8.5,70.504v14.501l-5-5c-3.5-3.5-5.5-8.5-5.5-13.501v-65.003l5,5c3.5,3.5,5.5,8.5,5.5,13.501v50.503Zm12.501,27.501l-10.501-11.001v-16.501c0-5,2-9.5,5.5-13.501l51.003-51.003c4-4,6-9,6-14.501v-41.502c1,2.5,2.5,4.5,4.5,6l6.5,6.5v35.002c0,5-2,9.5-5.5,13.501l-51.003,51.503c-4,4-6,9-6,14.501v21.001h-.5Zm12.501,12.501l-10.501-10.501v-22.501c0-5,2-9.5,5.5-13.501l51.003-51.503c4-4,6-9,6-14.501v-33.502l10.501,10.501v29.001c0,5-2,9.5-5.5,13.501l-50.503,51.003c-4,4-6,9-6,14.501v27.501h-.5Zm12.501,12.501l-10.501-11.001v-29.001c0-5,2-9.5,5.5-13.501l51.003-51.003c4-4,6-9,6-14.501v-27.001l10.501,10.501v22.501c0,5-2,9.5-5.5,13.501l-50.503,51.503c-4,4-6,9-6,14.501v33.502h-.5Zm25.001-29.502v48.002c0,5-2,9.5-5.5,13.501l-5,5v-64.503c0-5,2-9.5,5.5-13.501l5-5v14.501c0,1,.5,1.5,0,2h0Zm50.003-78.004v1.5c0,5-2,9.5-5.5,13.501l-50.503,50.503c-4,4-6,9-6,14.501v42.002c-1-2.5-2.5-4.5-4.5-6l-6.5-6.5v-35.002c0-5,2-9.5,5.5-13.501l51.003-51.003c4-4,6-9,6-14.501v-21.001l10.501,10.501v15.001Zm12.501,55.003v14.501l-5-5c-3.5-3.5-5.5-8.5-5.5-13.501v-64.503l5,5c3.5,3.5,5.5,8.5,5.5,13.501v50.003Zm12.501,27.501l-10.501-11.001v-16.501c0-5,2-9.5,5.5-13.501l51.003-51.003c4-4,6-9,6-14.501v-41.502c1,2.5,2.5,4.5,4.5,6l6.5,6.5v35.002c0,5-2,9.5-5.5,13.501l-51.003,51.503c-4,4-6,9-6,14.501v21.001h-.5Zm12.501,12.501l-10.501-10.501v-22.501c0-5,2-9.5,5.5-13.501l51.003-51.503c4-4,6-9,6-14.501v-33.502l10.501,10.501v29.001c0,5-2,9.5-5.5,13.501l-50.503,51.003c-4,4-6,9-6,14.501v27.501h-.5Zm12.501,12.501l-10.501-11.001v-29.001c0-5,2-9.5,5.5-13.501l51.003-51.003c4-4,6-9,6-14.501v-27.001l10.501,10.501v22.501c0,5-2,9.5-5.5,13.501l-50.503,51.503c-4,4-6,9-6,14.501v33.502h-.5Zm25.001-35.502v54.503c0,5-2,9.5-5.5,13.501l-5,5v-65.003c0-5,2-9.5,5.5-13.501l5-5v10.501Zm50.003-73.504v3c0,5-2,9.5-5.5,13.501l-50.503,50.503c-4,4-6,9-6,14.501v42.002c-1-2.5-2.5-4.5-4.5-6l-6.5-6.5v-35.002c0-5,2-9.5,5.5-13.501l51.003-51.003c4-4,6-9,6-14.501v-21.001l10.501,10.501v13.501Zm12.501,56.503v15.001l-5-5c-3.5-3.5-5.5-8.5-5.5-13.501v-65.003l5,5c3.5,3.5,5.5,8.5,5.5,13.501v50.003Zm12.501,27.501l-10.501-11.001v-16.501c0-5,2-9.5,5.5-13.501l51.003-51.003c4-4,6-9,6-14.501v-41.502c1,2.5,2.5,4.5,4.5,6l6.5,6.5v35.002c0,5-2,9.5-5.5,13.501l-51.503,51.503c-4,4-6,9-6,14.501v21.001Zm12.501,12.501l-10.501-10.501v-22.501c0-5,2-9.5,5.5-13.501l51.003-51.503c4-4,6-9,6-14.501v-33.502l10.501,10.501v29.001c0,5-2,9.5-5.5,13.501l-51.003,51.003c-4,4-6,9-6,14.501,0,0,0,27.501,0,27.501Zm12.501,12.501l-10.501-11.001v-29.001c0-5,2-9.5,5.5-13.501l51.003-51.003c4-4,6-9,6-14.501v-27.001l10.501,10.501v22.501c0,5-2,9.5-5.5,13.501l-50.503,51.503c-4,4-6,9-6,14.501v33.502h-.5Zm25.001-32.502v51.503c0,5-2,9.5-5.5,13.501l-5,5v-64.503c0-5,2-9.5,5.5-13.501l5-5v13.001Zm50.003-76.004v2.5c0,5-2,9.5-5.5,13.501l-50.503,50.503c-4,4-6,9-6,14.501v42.002c-1-2.5-2.5-4.5-4.5-6l-6.5-6.5v-35.002c0-5,2-9.5,5.5-13.501l51.003-51.003c4-4,6-9,6-14.501v-21.001l10.501,10.501s0,14.001,0,14.001Zm12.501,56.003v14.501l-5-5c-3.5-3.5-5.5-8.5-5.5-13.501v-65.003l5,5c3.5,3.5,5.5,8.5,5.5,13.501v50.503Zm52.003-74.504v-50.503c0-5,2-9.5,5.5-13.501l5-5v65.003c0,5-2,9.5-5.5,13.501l-5,5v-14.501Zm6.5,10.501c4-4,6-9,6-14.501v-41.502c1,2.5,2.5,4.5,4.5,6l6.5,6.5v35.002c0,5-2,9.5-5.5,13.501l-51.503,51.003c-4,4-6,9-6,14.501v21.001l-10.501-11.001v-16.501c0-5,2-9.5,5.5-13.501l51.003-50.503Zm-14.001-24.001c3.5,3.5,5.5,8.5,5.5,13.501v16.501l-10.501,10.501v-21.001c0-5.5-2-10.501-6-14.501l-51.003-51.003c-3.5-3.5-5.5-8.5-5.5-13.501v-35.002l6.5-6.5c2-2,3-4,4.5-6v41.502c0,5.5,2,10.501,6,14.501l50.503,51.003Zm7.5-135.007v-52.003c0-5,2-9.5,5.5-13.501l5-5v16.501h0v48.002c0,5-2,9.5-5.5,13.501l-5,5v-12.501Zm6.5,9c4-4,6-9,6-14.501v-41.502c1,2.5,2.5,4.5,4.5,6l6.5,6.5v35.002c0,5-2,9.5-5.5,13.501l-51.503,51.003c-4,4-6,9-6,14.501v21.001l-10.501-11.001v-16.501c0-5,2-9.5,5.5-13.501l51.003-50.503Zm-14.001-24.001c3.5,3.5,5.5,8.5,5.5,13.501v16.001l-10.501,10.501v-21.001c0-5.5-2-10.501-6-14.501l-51.003-50.503c-3.5-3.5-5.5-8.5-5.5-13.501V26.001l6.5-6.5c2-2,3-4,4.5-6V55.003c0,5.5,2,10.501,6,14.501l50.503,51.003Z" fill="#010101"/>
      <path d="M0,400.02v36.002H0v-33.502l10.501,10.501v29.001c0,3-.5,5.5-2,8h2c1-2.5,1.5-5.5,1.5-8v-27.001l10.501,10.501v24.501h2.5v-23.001l10.501,10.501v13.001h2v-10.501l5,5c1.5,1.5,2.5,3.5,3.5,5h2c-1-2.5-2.5-4.5-4.5-6.5L0,400.02Z" fill="#010101"/>
    </g>
  </g>
</svg>